<svg height="512pt" viewBox="0 -34 512 512" width="512pt" xmlns="http://www.w3.org/2000/svg"><path d="m435.199219 143.957031v274.175781c-.027344 9.414063-7.652344 17.039063-17.066407 17.066407h-324.265624c-9.414063-.027344-17.039063-7.652344-17.066407-17.066407v-274.175781zm0 0" fill="#fdd7ad"/><path d="m264.535156 230.398438h170.664063v119.46875h-170.664063zm0 0" fill="#90bae1"/><path d="m435.199219 230.398438v21.933593c-92.757813 20.992188-137.472657 68.09375-157.097657 97.535157h-13.566406v-119.46875zm0 0" fill="#b0d3f0"/><path d="m426.667969 187.734375c-18.851563 0-34.132813-15.28125-34.132813-34.132813l-25.601562-119.46875h68.265625l25.601562 119.46875c0 18.851563-15.28125 34.132813-34.132812 34.132813zm0 0" fill="#c03a2b"/><path d="m324.265625 153.601562c0 18.851563-15.28125 34.132813-34.132813 34.132813-18.851562 0-34.132812-15.28125-34.132812-34.132813 0 18.851563-15.28125 34.132813-34.132812 34.132813-18.851563 0-34.132813-15.28125-34.132813-34.132813l6.65625-31.0625h123.21875zm0 0" fill="#c03a2b"/><path d="m392.535156 153.601562c0 18.851563-15.285156 34.132813-34.136718 34.132813-18.851563 0-34.132813-15.28125-34.132813-34.132813l-6.65625-31.0625h-123.21875l-6.65625 31.0625c0 18.851563-15.28125 34.132813-34.132813 34.132813-18.851562 0-34.136718-15.28125-34.136718-34.132813l25.601562-119.46875h221.867188zm0 0" fill="#e64c3c"/><path d="m85.332031 187.734375c-18.851562 0-34.132812-15.28125-34.132812-34.132813l25.601562-119.46875h68.265625l-25.601562 119.46875c0 18.851563-15.28125 34.132813-34.132813 34.132813zm0 0" fill="#c03a2b"/><path d="m332.800781 76.800781c0 42.414063-34.386719 76.800781-76.800781 76.800781s-76.800781-34.386718-76.800781-76.800781c0-42.417969 34.386719-76.800781 76.800781-76.800781s76.800781 34.382812 76.800781 76.800781zm0 0" fill="#e6e7e8"/><path d="m110.933594 230.398438h119.464844v204.800781h-119.464844zm0 0" fill="#5e5f62"/><path d="m204.800781 332.800781c0 4.710938-3.820312 8.53125-8.535156 8.53125-4.710937 0-8.53125-3.820312-8.53125-8.53125 0-4.714843 3.820313-8.535156 8.53125-8.535156 4.714844 0 8.535156 3.820313 8.535156 8.535156zm0 0" fill="#2c2f38"/><g fill="#2c3e50"><path d="m358.398438 307.199219v42.667969h-17.066407v-42.667969c0-4.710938 3.820313-8.53125 8.535157-8.53125 4.710937 0 8.53125 3.820312 8.53125 8.53125zm0 0"/><path d="m358.398438 230.398438v42.667968c0 4.714844-3.820313 8.535156-8.53125 8.535156-4.714844 0-8.535157-3.820312-8.535157-8.535156v-42.667968zm0 0"/><path d="m315.734375 290.132812c0 4.714844-3.820313 8.535157-8.535156 8.535157h-42.664063v-17.066407h42.664063c4.714843 0 8.535156 3.820313 8.535156 8.53125zm0 0"/><path d="m435.199219 281.601562v17.066407h-42.664063c-4.714844 0-8.535156-3.820313-8.535156-8.535157 0-4.710937 3.820312-8.53125 8.535156-8.53125zm0 0"/></g><path d="m460.800781 443.734375h-409.601562c-4.710938 0-8.53125-3.820313-8.53125-8.535156 0-4.710938 3.820312-8.53125 8.53125-8.53125h409.601562c4.710938 0 8.53125 3.820312 8.53125 8.53125 0 4.714843-3.820312 8.535156-8.53125 8.535156zm0 0" fill="#71c285"/><path d="m17.066406 443.734375h-8.53125c-4.714844 0-8.535156-3.820313-8.535156-8.535156 0-4.710938 3.820312-8.53125 8.535156-8.53125h8.53125c4.714844 0 8.535156 3.820312 8.535156 8.53125 0 4.714843-3.820312 8.535156-8.535156 8.535156zm0 0" fill="#71c285"/><path d="m503.464844 443.734375h-8.53125c-4.714844 0-8.535156-3.820313-8.535156-8.535156 0-4.710938 3.820312-8.53125 8.535156-8.53125h8.53125c4.714844 0 8.535156 3.820312 8.535156 8.53125 0 4.714843-3.820312 8.535156-8.535156 8.535156zm0 0" fill="#71c285"/><path d="m298.667969 85.332031h-85.335938c-4.710937 0-8.53125-3.820312-8.53125-8.53125 0-4.714843 3.820313-8.535156 8.53125-8.535156h85.335938c4.710937 0 8.53125 3.820313 8.53125 8.535156 0 4.710938-3.820313 8.53125-8.53125 8.53125zm0 0" fill="#c03a2b"/><path d="m256 128c-4.710938 0-8.535156-3.820312-8.535156-8.535156v-85.332032c0-4.710937 3.824218-8.53125 8.535156-8.53125s8.535156 3.820313 8.535156 8.53125v85.332032c0 4.714844-3.824218 8.535156-8.535156 8.535156zm0 0" fill="#c03a2b"/></svg>